<svg xmlns="http://www.w3.org/2000/svg" xmlns:xlink="http://www.w3.org/1999/xlink" width="500" zoomAndPan="magnify" viewBox="0 0 375 374.999991" height="500" preserveAspectRatio="xMidYMid meet" version="1.0"><defs><g/></defs><g fill="#000000" fill-opacity="1"><g transform="translate(86.660504, 195.838037)"><g><path d="M 9.703125 -18.109375 C 10.710938 -18.109375 11.707031 -17.992188 12.6875 -17.765625 C 13.675781 -17.535156 14.410156 -17.304688 14.890625 -17.078125 L 15.609375 -16.734375 L 13.609375 -12.765625 C 12.242188 -13.492188 10.941406 -13.859375 9.703125 -13.859375 C 9.015625 -13.859375 8.523438 -13.78125 8.234375 -13.625 C 7.953125 -13.476562 7.8125 -13.203125 7.8125 -12.796875 C 7.8125 -12.703125 7.820312 -12.609375 7.84375 -12.515625 C 7.875 -12.421875 7.921875 -12.332031 7.984375 -12.25 C 8.054688 -12.175781 8.117188 -12.109375 8.171875 -12.046875 C 8.234375 -11.992188 8.332031 -11.929688 8.46875 -11.859375 C 8.601562 -11.796875 8.710938 -11.742188 8.796875 -11.703125 C 8.878906 -11.671875 9.007812 -11.617188 9.1875 -11.546875 C 9.375 -11.484375 9.507812 -11.4375 9.59375 -11.40625 C 9.6875 -11.375 9.84375 -11.320312 10.0625 -11.25 C 10.28125 -11.175781 10.445312 -11.128906 10.5625 -11.109375 C 11.269531 -10.898438 11.882812 -10.671875 12.40625 -10.421875 C 12.9375 -10.171875 13.492188 -9.828125 14.078125 -9.390625 C 14.660156 -8.960938 15.109375 -8.414062 15.421875 -7.75 C 15.742188 -7.082031 15.90625 -6.328125 15.90625 -5.484375 C 15.90625 -1.484375 13.128906 0.515625 7.578125 0.515625 C 6.316406 0.515625 5.117188 0.320312 3.984375 -0.0625 C 2.859375 -0.457031 2.046875 -0.847656 1.546875 -1.234375 L 0.78125 -1.859375 L 3.265625 -6 C 3.441406 -5.84375 3.675781 -5.65625 3.96875 -5.4375 C 4.269531 -5.21875 4.804688 -4.921875 5.578125 -4.546875 C 6.359375 -4.171875 7.035156 -3.984375 7.609375 -3.984375 C 8.867188 -3.984375 9.5 -4.40625 9.5 -5.25 C 9.5 -5.632812 9.335938 -5.9375 9.015625 -6.15625 C 8.703125 -6.375 8.160156 -6.617188 7.390625 -6.890625 C 6.617188 -7.171875 6.019531 -7.421875 5.59375 -7.640625 C 4.488281 -8.210938 3.617188 -8.859375 2.984375 -9.578125 C 2.347656 -10.304688 2.03125 -11.265625 2.03125 -12.453125 C 2.03125 -14.234375 2.71875 -15.617188 4.09375 -16.609375 C 5.476562 -17.609375 7.347656 -18.109375 9.703125 -18.109375 Z M 9.703125 -18.109375 "/></g></g></g><g fill="#000000" fill-opacity="1"><g transform="translate(100.304115, 195.838037)"><g><path d="M 11.421875 -13.140625 C 10.273438 -13.140625 9.289062 -12.710938 8.46875 -11.859375 C 7.644531 -11.015625 7.234375 -10 7.234375 -8.8125 C 7.234375 -7.601562 7.644531 -6.570312 8.46875 -5.71875 C 9.289062 -4.875 10.273438 -4.453125 11.421875 -4.453125 C 11.972656 -4.453125 12.492188 -4.519531 12.984375 -4.65625 C 13.472656 -4.800781 13.832031 -4.941406 14.0625 -5.078125 L 14.375 -5.28125 L 16.421875 -1.0625 C 16.265625 -0.945312 16.039062 -0.800781 15.75 -0.625 C 15.46875 -0.457031 14.816406 -0.226562 13.796875 0.0625 C 12.785156 0.363281 11.695312 0.515625 10.53125 0.515625 C 7.945312 0.515625 5.675781 -0.390625 3.71875 -2.203125 C 1.757812 -4.023438 0.78125 -6.207031 0.78125 -8.75 C 0.78125 -11.3125 1.757812 -13.507812 3.71875 -15.34375 C 5.675781 -17.1875 7.945312 -18.109375 10.53125 -18.109375 C 11.695312 -18.109375 12.769531 -17.96875 13.75 -17.6875 C 14.738281 -17.414062 15.4375 -17.144531 15.84375 -16.875 L 16.421875 -16.46875 L 14.375 -12.3125 C 13.613281 -12.863281 12.628906 -13.140625 11.421875 -13.140625 Z M 11.421875 -13.140625 "/></g></g></g><g fill="#000000" fill-opacity="1"><g transform="translate(113.913439, 195.838037)"><g><path d="M 19.859375 -7.953125 L 7.09375 -7.953125 C 7.09375 -6.722656 7.492188 -5.8125 8.296875 -5.21875 C 9.097656 -4.625 9.96875 -4.328125 10.90625 -4.328125 C 11.882812 -4.328125 12.660156 -4.457031 13.234375 -4.71875 C 13.804688 -4.976562 14.457031 -5.5 15.1875 -6.28125 L 19.578125 -4.078125 C 17.753906 -1.015625 14.710938 0.515625 10.453125 0.515625 C 7.804688 0.515625 5.53125 -0.390625 3.625 -2.203125 C 1.726562 -4.023438 0.78125 -6.21875 0.78125 -8.78125 C 0.78125 -11.34375 1.726562 -13.535156 3.625 -15.359375 C 5.53125 -17.191406 7.804688 -18.109375 10.453125 -18.109375 C 13.242188 -18.109375 15.515625 -17.300781 17.265625 -15.6875 C 19.015625 -14.070312 19.890625 -11.769531 19.890625 -8.78125 C 19.890625 -8.363281 19.878906 -8.085938 19.859375 -7.953125 Z M 7.265625 -11.3125 L 13.953125 -11.3125 C 13.816406 -12.226562 13.457031 -12.929688 12.875 -13.421875 C 12.289062 -13.921875 11.539062 -14.171875 10.625 -14.171875 C 9.625 -14.171875 8.828125 -13.90625 8.234375 -13.375 C 7.640625 -12.851562 7.316406 -12.164062 7.265625 -11.3125 Z M 7.265625 -11.3125 "/></g></g></g><g fill="#000000" fill-opacity="1"><g transform="translate(131.362477, 195.838037)"><g><path d="M 2.0625 0 L 2.0625 -17.59375 L 8.125 -17.59375 L 8.125 -15.75 L 8.203125 -15.75 C 9.773438 -17.320312 11.453125 -18.109375 13.234375 -18.109375 C 14.109375 -18.109375 14.972656 -17.992188 15.828125 -17.765625 C 16.679688 -17.535156 17.503906 -17.179688 18.296875 -16.703125 C 19.085938 -16.222656 19.726562 -15.539062 20.21875 -14.65625 C 20.707031 -13.78125 20.953125 -12.757812 20.953125 -11.59375 L 20.953125 0 L 14.890625 0 L 14.890625 -9.953125 C 14.890625 -10.859375 14.597656 -11.65625 14.015625 -12.34375 C 13.429688 -13.03125 12.671875 -13.375 11.734375 -13.375 C 10.816406 -13.375 9.984375 -13.019531 9.234375 -12.3125 C 8.492188 -11.601562 8.125 -10.816406 8.125 -9.953125 L 8.125 0 Z M 2.0625 0 "/></g></g></g><g fill="#000000" fill-opacity="1"><g transform="translate(150.799936, 195.838037)"><g><path d="M 3.09375 -17.59375 L 3.09375 -24.140625 L 9.15625 -24.140625 L 9.15625 -17.59375 L 12.859375 -17.59375 L 12.859375 -12.96875 L 9.15625 -12.96875 L 9.15625 -7.375 C 9.15625 -5.75 9.613281 -4.9375 10.53125 -4.9375 C 10.757812 -4.9375 11 -4.984375 11.25 -5.078125 C 11.5 -5.171875 11.691406 -5.257812 11.828125 -5.34375 L 12.03125 -5.484375 L 13.546875 -0.578125 C 12.242188 0.148438 10.757812 0.515625 9.09375 0.515625 C 7.945312 0.515625 6.960938 0.316406 6.140625 -0.078125 C 5.316406 -0.484375 4.691406 -1.019531 4.265625 -1.6875 C 3.847656 -2.363281 3.546875 -3.070312 3.359375 -3.8125 C 3.179688 -4.5625 3.09375 -5.359375 3.09375 -6.203125 L 3.09375 -12.96875 L 0.546875 -12.96875 L 0.546875 -17.59375 Z M 3.09375 -17.59375 "/></g></g></g><g fill="#000000" fill-opacity="1"><g transform="translate(161.118076, 195.838037)"><g><path d="M 9.703125 -18.109375 C 10.710938 -18.109375 11.707031 -17.992188 12.6875 -17.765625 C 13.675781 -17.535156 14.410156 -17.304688 14.890625 -17.078125 L 15.609375 -16.734375 L 13.609375 -12.765625 C 12.242188 -13.492188 10.941406 -13.859375 9.703125 -13.859375 C 9.015625 -13.859375 8.523438 -13.78125 8.234375 -13.625 C 7.953125 -13.476562 7.8125 -13.203125 7.8125 -12.796875 C 7.8125 -12.703125 7.820312 -12.609375 7.84375 -12.515625 C 7.875 -12.421875 7.921875 -12.332031 7.984375 -12.25 C 8.054688 -12.175781 8.117188 -12.109375 8.171875 -12.046875 C 8.234375 -11.992188 8.332031 -11.929688 8.46875 -11.859375 C 8.601562 -11.796875 8.710938 -11.742188 8.796875 -11.703125 C 8.878906 -11.671875 9.007812 -11.617188 9.1875 -11.546875 C 9.375 -11.484375 9.507812 -11.4375 9.59375 -11.40625 C 9.6875 -11.375 9.84375 -11.320312 10.0625 -11.25 C 10.28125 -11.175781 10.445312 -11.128906 10.5625 -11.109375 C 11.269531 -10.898438 11.882812 -10.671875 12.40625 -10.421875 C 12.9375 -10.171875 13.492188 -9.828125 14.078125 -9.390625 C 14.660156 -8.960938 15.109375 -8.414062 15.421875 -7.75 C 15.742188 -7.082031 15.90625 -6.328125 15.90625 -5.484375 C 15.90625 -1.484375 13.128906 0.515625 7.578125 0.515625 C 6.316406 0.515625 5.117188 0.320312 3.984375 -0.0625 C 2.859375 -0.457031 2.046875 -0.847656 1.546875 -1.234375 L 0.78125 -1.859375 L 3.265625 -6 C 3.441406 -5.84375 3.675781 -5.65625 3.96875 -5.4375 C 4.269531 -5.21875 4.804688 -4.921875 5.578125 -4.546875 C 6.359375 -4.171875 7.035156 -3.984375 7.609375 -3.984375 C 8.867188 -3.984375 9.5 -4.40625 9.5 -5.25 C 9.5 -5.632812 9.335938 -5.9375 9.015625 -6.15625 C 8.703125 -6.375 8.160156 -6.617188 7.390625 -6.890625 C 6.617188 -7.171875 6.019531 -7.421875 5.59375 -7.640625 C 4.488281 -8.210938 3.617188 -8.859375 2.984375 -9.578125 C 2.347656 -10.304688 2.03125 -11.265625 2.03125 -12.453125 C 2.03125 -14.234375 2.71875 -15.617188 4.09375 -16.609375 C 5.476562 -17.609375 7.347656 -18.109375 9.703125 -18.109375 Z M 9.703125 -18.109375 "/></g></g></g><g fill="#000000" fill-opacity="1"><g transform="translate(174.761684, 195.838037)"><g/></g></g><g fill="#000000" fill-opacity="1"><g transform="translate(180.897285, 195.838037)"><g><path d="M 9.703125 -18.109375 C 10.710938 -18.109375 11.707031 -17.992188 12.6875 -17.765625 C 13.675781 -17.535156 14.410156 -17.304688 14.890625 -17.078125 L 15.609375 -16.734375 L 13.609375 -12.765625 C 12.242188 -13.492188 10.941406 -13.859375 9.703125 -13.859375 C 9.015625 -13.859375 8.523438 -13.78125 8.234375 -13.625 C 7.953125 -13.476562 7.8125 -13.203125 7.8125 -12.796875 C 7.8125 -12.703125 7.820312 -12.609375 7.84375 -12.515625 C 7.875 -12.421875 7.921875 -12.332031 7.984375 -12.25 C 8.054688 -12.175781 8.117188 -12.109375 8.171875 -12.046875 C 8.234375 -11.992188 8.332031 -11.929688 8.46875 -11.859375 C 8.601562 -11.796875 8.710938 -11.742188 8.796875 -11.703125 C 8.878906 -11.671875 9.007812 -11.617188 9.1875 -11.546875 C 9.375 -11.484375 9.507812 -11.4375 9.59375 -11.40625 C 9.6875 -11.375 9.84375 -11.320312 10.0625 -11.25 C 10.28125 -11.175781 10.445312 -11.128906 10.5625 -11.109375 C 11.269531 -10.898438 11.882812 -10.671875 12.40625 -10.421875 C 12.9375 -10.171875 13.492188 -9.828125 14.078125 -9.390625 C 14.660156 -8.960938 15.109375 -8.414062 15.421875 -7.75 C 15.742188 -7.082031 15.90625 -6.328125 15.90625 -5.484375 C 15.90625 -1.484375 13.128906 0.515625 7.578125 0.515625 C 6.316406 0.515625 5.117188 0.320312 3.984375 -0.0625 C 2.859375 -0.457031 2.046875 -0.847656 1.546875 -1.234375 L 0.78125 -1.859375 L 3.265625 -6 C 3.441406 -5.84375 3.675781 -5.65625 3.96875 -5.4375 C 4.269531 -5.21875 4.804688 -4.921875 5.578125 -4.546875 C 6.359375 -4.171875 7.035156 -3.984375 7.609375 -3.984375 C 8.867188 -3.984375 9.5 -4.40625 9.5 -5.25 C 9.5 -5.632812 9.335938 -5.9375 9.015625 -6.15625 C 8.703125 -6.375 8.160156 -6.617188 7.390625 -6.890625 C 6.617188 -7.171875 6.019531 -7.421875 5.59375 -7.640625 C 4.488281 -8.210938 3.617188 -8.859375 2.984375 -9.578125 C 2.347656 -10.304688 2.03125 -11.265625 2.03125 -12.453125 C 2.03125 -14.234375 2.71875 -15.617188 4.09375 -16.609375 C 5.476562 -17.609375 7.347656 -18.109375 9.703125 -18.109375 Z M 9.703125 -18.109375 "/></g></g></g><g fill="#000000" fill-opacity="1"><g transform="translate(194.540894, 195.838037)"><g><path d="M 3.09375 -17.59375 L 3.09375 -24.140625 L 9.15625 -24.140625 L 9.15625 -17.59375 L 12.859375 -17.59375 L 12.859375 -12.96875 L 9.15625 -12.96875 L 9.15625 -7.375 C 9.15625 -5.75 9.613281 -4.9375 10.53125 -4.9375 C 10.757812 -4.9375 11 -4.984375 11.25 -5.078125 C 11.5 -5.171875 11.691406 -5.257812 11.828125 -5.34375 L 12.03125 -5.484375 L 13.546875 -0.578125 C 12.242188 0.148438 10.757812 0.515625 9.09375 0.515625 C 7.945312 0.515625 6.960938 0.316406 6.140625 -0.078125 C 5.316406 -0.484375 4.691406 -1.019531 4.265625 -1.6875 C 3.847656 -2.363281 3.546875 -3.070312 3.359375 -3.8125 C 3.179688 -4.5625 3.09375 -5.359375 3.09375 -6.203125 L 3.09375 -12.96875 L 0.546875 -12.96875 L 0.546875 -17.59375 Z M 3.09375 -17.59375 "/></g></g></g><g fill="#000000" fill-opacity="1"><g transform="translate(204.859033, 195.838037)"><g><path d="M 3.71875 -2.09375 C 1.757812 -3.832031 0.78125 -6.0625 0.78125 -8.78125 C 0.78125 -11.5 1.796875 -13.734375 3.828125 -15.484375 C 5.867188 -17.234375 8.390625 -18.109375 11.390625 -18.109375 C 14.335938 -18.109375 16.820312 -17.226562 18.84375 -15.46875 C 20.863281 -13.707031 21.875 -11.476562 21.875 -8.78125 C 21.875 -6.082031 20.882812 -3.859375 18.90625 -2.109375 C 16.9375 -0.359375 14.429688 0.515625 11.390625 0.515625 C 8.234375 0.515625 5.675781 -0.351562 3.71875 -2.09375 Z M 8.421875 -11.765625 C 7.628906 -10.984375 7.234375 -9.988281 7.234375 -8.78125 C 7.234375 -7.570312 7.609375 -6.582031 8.359375 -5.8125 C 9.117188 -5.050781 10.117188 -4.671875 11.359375 -4.671875 C 12.546875 -4.671875 13.519531 -5.054688 14.28125 -5.828125 C 15.050781 -6.609375 15.4375 -7.59375 15.4375 -8.78125 C 15.4375 -9.988281 15.039062 -10.984375 14.25 -11.765625 C 13.457031 -12.546875 12.492188 -12.9375 11.359375 -12.9375 C 10.191406 -12.9375 9.210938 -12.546875 8.421875 -11.765625 Z M 8.421875 -11.765625 "/></g></g></g><g fill="#000000" fill-opacity="1"><g transform="translate(224.296493, 195.838037)"><g><path d="M 2.0625 0 L 2.0625 -17.59375 L 8.125 -17.59375 L 8.125 -15.0625 L 8.203125 -15.0625 C 8.242188 -15.144531 8.316406 -15.253906 8.421875 -15.390625 C 8.523438 -15.535156 8.75 -15.78125 9.09375 -16.125 C 9.4375 -16.46875 9.800781 -16.773438 10.1875 -17.046875 C 10.570312 -17.316406 11.070312 -17.5625 11.6875 -17.78125 C 12.3125 -18 12.941406 -18.109375 13.578125 -18.109375 C 14.242188 -18.109375 14.894531 -18.015625 15.53125 -17.828125 C 16.175781 -17.648438 16.644531 -17.46875 16.9375 -17.28125 L 17.421875 -17.015625 L 14.890625 -11.859375 C 14.128906 -12.503906 13.078125 -12.828125 11.734375 -12.828125 C 10.992188 -12.828125 10.359375 -12.664062 9.828125 -12.34375 C 9.304688 -12.019531 8.9375 -11.628906 8.71875 -11.171875 C 8.507812 -10.722656 8.359375 -10.335938 8.265625 -10.015625 C 8.171875 -9.691406 8.125 -9.441406 8.125 -9.265625 L 8.125 0 Z M 2.0625 0 "/></g></g></g><g fill="#000000" fill-opacity="1"><g transform="translate(238.145797, 195.838037)"><g><path d="M 2.640625 -27.40625 C 3.347656 -28.113281 4.191406 -28.46875 5.171875 -28.46875 C 6.160156 -28.46875 7.007812 -28.113281 7.71875 -27.40625 C 8.425781 -26.695312 8.78125 -25.847656 8.78125 -24.859375 C 8.78125 -23.878906 8.425781 -23.035156 7.71875 -22.328125 C 7.007812 -21.617188 6.160156 -21.265625 5.171875 -21.265625 C 4.191406 -21.265625 3.347656 -21.617188 2.640625 -22.328125 C 1.929688 -23.035156 1.578125 -23.878906 1.578125 -24.859375 C 1.578125 -25.847656 1.929688 -26.695312 2.640625 -27.40625 Z M 2.0625 -17.59375 L 2.0625 0 L 8.125 0 L 8.125 -17.59375 Z M 2.0625 -17.59375 "/></g></g></g><g fill="#000000" fill-opacity="1"><g transform="translate(245.275606, 195.838037)"><g><path d="M 19.859375 -7.953125 L 7.09375 -7.953125 C 7.09375 -6.722656 7.492188 -5.8125 8.296875 -5.21875 C 9.097656 -4.625 9.96875 -4.328125 10.90625 -4.328125 C 11.882812 -4.328125 12.660156 -4.457031 13.234375 -4.71875 C 13.804688 -4.976562 14.457031 -5.5 15.1875 -6.28125 L 19.578125 -4.078125 C 17.753906 -1.015625 14.710938 0.515625 10.453125 0.515625 C 7.804688 0.515625 5.53125 -0.390625 3.625 -2.203125 C 1.726562 -4.023438 0.78125 -6.21875 0.78125 -8.78125 C 0.78125 -11.34375 1.726562 -13.535156 3.625 -15.359375 C 5.53125 -17.191406 7.804688 -18.109375 10.453125 -18.109375 C 13.242188 -18.109375 15.515625 -17.300781 17.265625 -15.6875 C 19.015625 -14.070312 19.890625 -11.769531 19.890625 -8.78125 C 19.890625 -8.363281 19.878906 -8.085938 19.859375 -7.953125 Z M 7.265625 -11.3125 L 13.953125 -11.3125 C 13.816406 -12.226562 13.457031 -12.929688 12.875 -13.421875 C 12.289062 -13.921875 11.539062 -14.171875 10.625 -14.171875 C 9.625 -14.171875 8.828125 -13.90625 8.234375 -13.375 C 7.640625 -12.851562 7.316406 -12.164062 7.265625 -11.3125 Z M 7.265625 -11.3125 "/></g></g></g><g fill="#000000" fill-opacity="1"><g transform="translate(262.72464, 195.838037)"><g><path d="M 9.703125 -18.109375 C 10.710938 -18.109375 11.707031 -17.992188 12.6875 -17.765625 C 13.675781 -17.535156 14.410156 -17.304688 14.890625 -17.078125 L 15.609375 -16.734375 L 13.609375 -12.765625 C 12.242188 -13.492188 10.941406 -13.859375 9.703125 -13.859375 C 9.015625 -13.859375 8.523438 -13.78125 8.234375 -13.625 C 7.953125 -13.476562 7.8125 -13.203125 7.8125 -12.796875 C 7.8125 -12.703125 7.820312 -12.609375 7.84375 -12.515625 C 7.875 -12.421875 7.921875 -12.332031 7.984375 -12.25 C 8.054688 -12.175781 8.117188 -12.109375 8.171875 -12.046875 C 8.234375 -11.992188 8.332031 -11.929688 8.46875 -11.859375 C 8.601562 -11.796875 8.710938 -11.742188 8.796875 -11.703125 C 8.878906 -11.671875 9.007812 -11.617188 9.1875 -11.546875 C 9.375 -11.484375 9.507812 -11.4375 9.59375 -11.40625 C 9.6875 -11.375 9.84375 -11.320312 10.0625 -11.25 C 10.28125 -11.175781 10.445312 -11.128906 10.5625 -11.109375 C 11.269531 -10.898438 11.882812 -10.671875 12.40625 -10.421875 C 12.9375 -10.171875 13.492188 -9.828125 14.078125 -9.390625 C 14.660156 -8.960938 15.109375 -8.414062 15.421875 -7.75 C 15.742188 -7.082031 15.90625 -6.328125 15.90625 -5.484375 C 15.90625 -1.484375 13.128906 0.515625 7.578125 0.515625 C 6.316406 0.515625 5.117188 0.320312 3.984375 -0.0625 C 2.859375 -0.457031 2.046875 -0.847656 1.546875 -1.234375 L 0.78125 -1.859375 L 3.265625 -6 C 3.441406 -5.84375 3.675781 -5.65625 3.96875 -5.4375 C 4.269531 -5.21875 4.804688 -4.921875 5.578125 -4.546875 C 6.359375 -4.171875 7.035156 -3.984375 7.609375 -3.984375 C 8.867188 -3.984375 9.5 -4.40625 9.5 -5.25 C 9.5 -5.632812 9.335938 -5.9375 9.015625 -6.15625 C 8.703125 -6.375 8.160156 -6.617188 7.390625 -6.890625 C 6.617188 -7.171875 6.019531 -7.421875 5.59375 -7.640625 C 4.488281 -8.210938 3.617188 -8.859375 2.984375 -9.578125 C 2.347656 -10.304688 2.03125 -11.265625 2.03125 -12.453125 C 2.03125 -14.234375 2.71875 -15.617188 4.09375 -16.609375 C 5.476562 -17.609375 7.347656 -18.109375 9.703125 -18.109375 Z M 9.703125 -18.109375 "/></g></g></g><g fill="#000000" fill-opacity="1"><g transform="translate(276.368257, 195.838037)"><g><path d="M 5.96875 -7.34375 C 7.0625 -7.34375 7.988281 -6.957031 8.75 -6.1875 C 9.519531 -5.425781 9.90625 -4.492188 9.90625 -3.390625 C 9.90625 -2.316406 9.519531 -1.394531 8.75 -0.625 C 7.988281 0.132812 7.0625 0.515625 5.96875 0.515625 C 4.894531 0.515625 3.972656 0.132812 3.203125 -0.625 C 2.441406 -1.394531 2.0625 -2.316406 2.0625 -3.390625 C 2.0625 -4.492188 2.441406 -5.425781 3.203125 -6.1875 C 3.972656 -6.957031 4.894531 -7.34375 5.96875 -7.34375 Z M 5.96875 -7.34375 "/></g></g></g></svg>