<svg xmlns="http://www.w3.org/2000/svg" xmlns:xlink="http://www.w3.org/1999/xlink" width="500" zoomAndPan="magnify" viewBox="0 0 375 374.999991" height="500" preserveAspectRatio="xMidYMid meet" version="1.0"><defs><g/></defs><g fill="#000000" fill-opacity="1"><g transform="translate(54.552463, 192.560099)"><g><path d="M 12.796875 -23.875 C 14.117188 -23.875 15.425781 -23.722656 16.71875 -23.421875 C 18.019531 -23.117188 18.988281 -22.816406 19.625 -22.515625 L 20.5625 -22.0625 L 17.953125 -16.8125 C 16.140625 -17.78125 14.421875 -18.265625 12.796875 -18.265625 C 11.890625 -18.265625 11.25 -18.164062 10.875 -17.96875 C 10.5 -17.769531 10.3125 -17.398438 10.3125 -16.859375 C 10.3125 -16.742188 10.320312 -16.625 10.34375 -16.5 C 10.375 -16.375 10.4375 -16.257812 10.53125 -16.15625 C 10.625 -16.050781 10.707031 -15.960938 10.78125 -15.890625 C 10.851562 -15.816406 10.976562 -15.734375 11.15625 -15.640625 C 11.34375 -15.546875 11.488281 -15.476562 11.59375 -15.4375 C 11.695312 -15.394531 11.867188 -15.328125 12.109375 -15.234375 C 12.347656 -15.140625 12.53125 -15.070312 12.65625 -15.03125 C 12.78125 -14.988281 12.984375 -14.921875 13.265625 -14.828125 C 13.554688 -14.734375 13.773438 -14.671875 13.921875 -14.640625 C 14.859375 -14.367188 15.671875 -14.066406 16.359375 -13.734375 C 17.054688 -13.410156 17.785156 -12.960938 18.546875 -12.390625 C 19.316406 -11.816406 19.910156 -11.09375 20.328125 -10.21875 C 20.753906 -9.34375 20.96875 -8.347656 20.96875 -7.234375 C 20.96875 -1.960938 17.304688 0.671875 9.984375 0.671875 C 8.328125 0.671875 6.753906 0.414062 5.265625 -0.09375 C 3.773438 -0.601562 2.695312 -1.113281 2.03125 -1.625 L 1.046875 -2.4375 L 4.296875 -7.90625 C 4.535156 -7.695312 4.847656 -7.445312 5.234375 -7.15625 C 5.628906 -6.875 6.335938 -6.484375 7.359375 -5.984375 C 8.390625 -5.492188 9.28125 -5.25 10.03125 -5.25 C 11.6875 -5.25 12.515625 -5.804688 12.515625 -6.921875 C 12.515625 -7.429688 12.300781 -7.828125 11.875 -8.109375 C 11.457031 -8.398438 10.742188 -8.722656 9.734375 -9.078125 C 8.734375 -9.441406 7.945312 -9.773438 7.375 -10.078125 C 5.925781 -10.828125 4.78125 -11.675781 3.9375 -12.625 C 3.09375 -13.582031 2.671875 -14.84375 2.671875 -16.40625 C 2.671875 -18.757812 3.582031 -20.59375 5.40625 -21.90625 C 7.226562 -23.21875 9.691406 -23.875 12.796875 -23.875 Z M 12.796875 -23.875 "/></g></g></g><g fill="#000000" fill-opacity="1"><g transform="translate(72.5403, 192.560099)"><g><path d="M 15.046875 -17.3125 C 13.546875 -17.3125 12.25 -16.753906 11.15625 -15.640625 C 10.070312 -14.523438 9.53125 -13.1875 9.53125 -11.625 C 9.53125 -10.019531 10.070312 -8.660156 11.15625 -7.546875 C 12.25 -6.429688 13.546875 -5.875 15.046875 -5.875 C 15.773438 -5.875 16.460938 -5.960938 17.109375 -6.140625 C 17.753906 -6.328125 18.226562 -6.507812 18.53125 -6.6875 L 18.9375 -6.96875 L 21.65625 -1.40625 C 21.4375 -1.25 21.140625 -1.054688 20.765625 -0.828125 C 20.390625 -0.609375 19.53125 -0.304688 18.1875 0.078125 C 16.851562 0.472656 15.414062 0.671875 13.875 0.671875 C 10.46875 0.671875 7.476562 -0.523438 4.90625 -2.921875 C 2.332031 -5.316406 1.046875 -8.1875 1.046875 -11.53125 C 1.046875 -14.90625 2.332031 -17.804688 4.90625 -20.234375 C 7.476562 -22.660156 10.46875 -23.875 13.875 -23.875 C 15.414062 -23.875 16.832031 -23.691406 18.125 -23.328125 C 19.414062 -22.960938 20.335938 -22.597656 20.890625 -22.234375 L 21.65625 -21.703125 L 18.9375 -16.234375 C 17.945312 -16.953125 16.648438 -17.3125 15.046875 -17.3125 Z M 15.046875 -17.3125 "/></g></g></g><g fill="#000000" fill-opacity="1"><g transform="translate(90.482933, 192.560099)"><g><path d="M 26.171875 -10.484375 L 9.359375 -10.484375 C 9.359375 -8.859375 9.882812 -7.65625 10.9375 -6.875 C 11.988281 -6.09375 13.132812 -5.703125 14.375 -5.703125 C 15.664062 -5.703125 16.6875 -5.875 17.4375 -6.21875 C 18.195312 -6.5625 19.0625 -7.242188 20.03125 -8.265625 L 25.8125 -5.375 C 23.394531 -1.34375 19.382812 0.671875 13.78125 0.671875 C 10.289062 0.671875 7.296875 -0.523438 4.796875 -2.921875 C 2.296875 -5.316406 1.046875 -8.203125 1.046875 -11.578125 C 1.046875 -14.953125 2.296875 -17.84375 4.796875 -20.25 C 7.296875 -22.664062 10.289062 -23.875 13.78125 -23.875 C 17.457031 -23.875 20.445312 -22.8125 22.75 -20.6875 C 25.0625 -18.5625 26.21875 -15.523438 26.21875 -11.578125 C 26.21875 -11.035156 26.203125 -10.671875 26.171875 -10.484375 Z M 9.578125 -14.921875 L 18.390625 -14.921875 C 18.210938 -16.117188 17.738281 -17.039062 16.96875 -17.6875 C 16.207031 -18.34375 15.222656 -18.671875 14.015625 -18.671875 C 12.691406 -18.671875 11.632812 -18.320312 10.84375 -17.625 C 10.0625 -16.9375 9.640625 -16.035156 9.578125 -14.921875 Z M 9.578125 -14.921875 "/></g></g></g><g fill="#000000" fill-opacity="1"><g transform="translate(113.487873, 192.560099)"><g><path d="M 2.71875 0 L 2.71875 -23.1875 L 10.71875 -23.1875 L 10.71875 -20.75 L 10.796875 -20.75 C 12.878906 -22.832031 15.097656 -23.875 17.453125 -23.875 C 18.597656 -23.875 19.734375 -23.722656 20.859375 -23.421875 C 21.992188 -23.117188 23.078125 -22.648438 24.109375 -22.015625 C 25.148438 -21.378906 25.992188 -20.476562 26.640625 -19.3125 C 27.296875 -18.15625 27.625 -16.8125 27.625 -15.28125 L 27.625 0 L 19.625 0 L 19.625 -13.109375 C 19.625 -14.316406 19.238281 -15.367188 18.46875 -16.265625 C 17.695312 -17.171875 16.691406 -17.625 15.453125 -17.625 C 14.253906 -17.625 13.164062 -17.15625 12.1875 -16.21875 C 11.207031 -15.289062 10.71875 -14.253906 10.71875 -13.109375 L 10.71875 0 Z M 2.71875 0 "/></g></g></g><g fill="#000000" fill-opacity="1"><g transform="translate(139.114363, 192.560099)"><g><path d="M 4.0625 -23.1875 L 4.0625 -31.828125 L 12.0625 -31.828125 L 12.0625 -23.1875 L 16.953125 -23.1875 L 16.953125 -17.09375 L 12.0625 -17.09375 L 12.0625 -9.71875 C 12.0625 -7.582031 12.664062 -6.515625 13.875 -6.515625 C 14.175781 -6.515625 14.492188 -6.570312 14.828125 -6.6875 C 15.160156 -6.8125 15.414062 -6.929688 15.59375 -7.046875 L 15.859375 -7.234375 L 17.859375 -0.765625 C 16.140625 0.191406 14.179688 0.671875 11.984375 0.671875 C 10.472656 0.671875 9.175781 0.410156 8.09375 -0.109375 C 7.007812 -0.640625 6.1875 -1.347656 5.625 -2.234375 C 5.070312 -3.128906 4.671875 -4.066406 4.421875 -5.046875 C 4.179688 -6.023438 4.0625 -7.070312 4.0625 -8.1875 L 4.0625 -17.09375 L 0.71875 -17.09375 L 0.71875 -23.1875 Z M 4.0625 -23.1875 "/></g></g></g><g fill="#000000" fill-opacity="1"><g transform="translate(152.717874, 192.560099)"><g><path d="M 12.796875 -23.875 C 14.117188 -23.875 15.425781 -23.722656 16.71875 -23.421875 C 18.019531 -23.117188 18.988281 -22.816406 19.625 -22.515625 L 20.5625 -22.0625 L 17.953125 -16.8125 C 16.140625 -17.78125 14.421875 -18.265625 12.796875 -18.265625 C 11.890625 -18.265625 11.25 -18.164062 10.875 -17.96875 C 10.5 -17.769531 10.3125 -17.398438 10.3125 -16.859375 C 10.3125 -16.742188 10.320312 -16.625 10.34375 -16.5 C 10.375 -16.375 10.4375 -16.257812 10.53125 -16.15625 C 10.625 -16.050781 10.707031 -15.960938 10.78125 -15.890625 C 10.851562 -15.816406 10.976562 -15.734375 11.15625 -15.640625 C 11.34375 -15.546875 11.488281 -15.476562 11.59375 -15.4375 C 11.695312 -15.394531 11.867188 -15.328125 12.109375 -15.234375 C 12.347656 -15.140625 12.53125 -15.070312 12.65625 -15.03125 C 12.78125 -14.988281 12.984375 -14.921875 13.265625 -14.828125 C 13.554688 -14.734375 13.773438 -14.671875 13.921875 -14.640625 C 14.859375 -14.367188 15.671875 -14.066406 16.359375 -13.734375 C 17.054688 -13.410156 17.785156 -12.960938 18.546875 -12.390625 C 19.316406 -11.816406 19.910156 -11.09375 20.328125 -10.21875 C 20.753906 -9.34375 20.96875 -8.347656 20.96875 -7.234375 C 20.96875 -1.960938 17.304688 0.671875 9.984375 0.671875 C 8.328125 0.671875 6.753906 0.414062 5.265625 -0.09375 C 3.773438 -0.601562 2.695312 -1.113281 2.03125 -1.625 L 1.046875 -2.4375 L 4.296875 -7.90625 C 4.535156 -7.695312 4.847656 -7.445312 5.234375 -7.15625 C 5.628906 -6.875 6.335938 -6.484375 7.359375 -5.984375 C 8.390625 -5.492188 9.28125 -5.25 10.03125 -5.25 C 11.6875 -5.25 12.515625 -5.804688 12.515625 -6.921875 C 12.515625 -7.429688 12.300781 -7.828125 11.875 -8.109375 C 11.457031 -8.398438 10.742188 -8.722656 9.734375 -9.078125 C 8.734375 -9.441406 7.945312 -9.773438 7.375 -10.078125 C 5.925781 -10.828125 4.78125 -11.675781 3.9375 -12.625 C 3.09375 -13.582031 2.671875 -14.84375 2.671875 -16.40625 C 2.671875 -18.757812 3.582031 -20.59375 5.40625 -21.90625 C 7.226562 -23.21875 9.691406 -23.875 12.796875 -23.875 Z M 12.796875 -23.875 "/></g></g></g><g fill="#000000" fill-opacity="1"><g transform="translate(170.705708, 192.560099)"><g/></g></g><g fill="#000000" fill-opacity="1"><g transform="translate(178.794929, 192.560099)"><g><path d="M 12.796875 -23.875 C 14.117188 -23.875 15.425781 -23.722656 16.71875 -23.421875 C 18.019531 -23.117188 18.988281 -22.816406 19.625 -22.515625 L 20.5625 -22.0625 L 17.953125 -16.8125 C 16.140625 -17.78125 14.421875 -18.265625 12.796875 -18.265625 C 11.890625 -18.265625 11.25 -18.164062 10.875 -17.96875 C 10.5 -17.769531 10.3125 -17.398438 10.3125 -16.859375 C 10.3125 -16.742188 10.320312 -16.625 10.34375 -16.5 C 10.375 -16.375 10.4375 -16.257812 10.53125 -16.15625 C 10.625 -16.050781 10.707031 -15.960938 10.78125 -15.890625 C 10.851562 -15.816406 10.976562 -15.734375 11.15625 -15.640625 C 11.34375 -15.546875 11.488281 -15.476562 11.59375 -15.4375 C 11.695312 -15.394531 11.867188 -15.328125 12.109375 -15.234375 C 12.347656 -15.140625 12.53125 -15.070312 12.65625 -15.03125 C 12.78125 -14.988281 12.984375 -14.921875 13.265625 -14.828125 C 13.554688 -14.734375 13.773438 -14.671875 13.921875 -14.640625 C 14.859375 -14.367188 15.671875 -14.066406 16.359375 -13.734375 C 17.054688 -13.410156 17.785156 -12.960938 18.546875 -12.390625 C 19.316406 -11.816406 19.910156 -11.09375 20.328125 -10.21875 C 20.753906 -9.34375 20.96875 -8.347656 20.96875 -7.234375 C 20.96875 -1.960938 17.304688 0.671875 9.984375 0.671875 C 8.328125 0.671875 6.753906 0.414062 5.265625 -0.09375 C 3.773438 -0.601562 2.695312 -1.113281 2.03125 -1.625 L 1.046875 -2.4375 L 4.296875 -7.90625 C 4.535156 -7.695312 4.847656 -7.445312 5.234375 -7.15625 C 5.628906 -6.875 6.335938 -6.484375 7.359375 -5.984375 C 8.390625 -5.492188 9.28125 -5.25 10.03125 -5.25 C 11.6875 -5.25 12.515625 -5.804688 12.515625 -6.921875 C 12.515625 -7.429688 12.300781 -7.828125 11.875 -8.109375 C 11.457031 -8.398438 10.742188 -8.722656 9.734375 -9.078125 C 8.734375 -9.441406 7.945312 -9.773438 7.375 -10.078125 C 5.925781 -10.828125 4.78125 -11.675781 3.9375 -12.625 C 3.09375 -13.582031 2.671875 -14.84375 2.671875 -16.40625 C 2.671875 -18.757812 3.582031 -20.59375 5.40625 -21.90625 C 7.226562 -23.21875 9.691406 -23.875 12.796875 -23.875 Z M 12.796875 -23.875 "/></g></g></g><g fill="#000000" fill-opacity="1"><g transform="translate(196.782763, 192.560099)"><g><path d="M 4.0625 -23.1875 L 4.0625 -31.828125 L 12.0625 -31.828125 L 12.0625 -23.1875 L 16.953125 -23.1875 L 16.953125 -17.09375 L 12.0625 -17.09375 L 12.0625 -9.71875 C 12.0625 -7.582031 12.664062 -6.515625 13.875 -6.515625 C 14.175781 -6.515625 14.492188 -6.570312 14.828125 -6.6875 C 15.160156 -6.8125 15.414062 -6.929688 15.59375 -7.046875 L 15.859375 -7.234375 L 17.859375 -0.765625 C 16.140625 0.191406 14.179688 0.671875 11.984375 0.671875 C 10.472656 0.671875 9.175781 0.410156 8.09375 -0.109375 C 7.007812 -0.640625 6.1875 -1.347656 5.625 -2.234375 C 5.070312 -3.128906 4.671875 -4.066406 4.421875 -5.046875 C 4.179688 -6.023438 4.0625 -7.070312 4.0625 -8.1875 L 4.0625 -17.09375 L 0.71875 -17.09375 L 0.71875 -23.1875 Z M 4.0625 -23.1875 "/></g></g></g><g fill="#000000" fill-opacity="1"><g transform="translate(210.386274, 192.560099)"><g><path d="M 4.90625 -2.75 C 2.332031 -5.039062 1.046875 -7.976562 1.046875 -11.5625 C 1.046875 -15.15625 2.382812 -18.101562 5.0625 -20.40625 C 7.738281 -22.71875 11.050781 -23.875 15 -23.875 C 18.894531 -23.875 22.175781 -22.710938 24.84375 -20.390625 C 27.507812 -18.066406 28.84375 -15.125 28.84375 -11.5625 C 28.84375 -8.007812 27.535156 -5.082031 24.921875 -2.78125 C 22.316406 -0.476562 19.007812 0.671875 15 0.671875 C 10.84375 0.671875 7.476562 -0.46875 4.90625 -2.75 Z M 11.09375 -15.5 C 10.050781 -14.476562 9.53125 -13.164062 9.53125 -11.5625 C 9.53125 -9.96875 10.023438 -8.664062 11.015625 -7.65625 C 12.015625 -6.644531 13.332031 -6.140625 14.96875 -6.140625 C 16.53125 -6.140625 17.816406 -6.648438 18.828125 -7.671875 C 19.835938 -8.703125 20.34375 -10.003906 20.34375 -11.578125 C 20.34375 -13.171875 19.820312 -14.476562 18.78125 -15.5 C 17.738281 -16.53125 16.46875 -17.046875 14.96875 -17.046875 C 13.425781 -17.046875 12.132812 -16.53125 11.09375 -15.5 Z M 11.09375 -15.5 "/></g></g></g><g fill="#000000" fill-opacity="1"><g transform="translate(236.012764, 192.560099)"><g><path d="M 2.71875 0 L 2.71875 -23.1875 L 10.71875 -23.1875 L 10.71875 -19.84375 L 10.796875 -19.84375 C 10.859375 -19.96875 10.957031 -20.117188 11.09375 -20.296875 C 11.226562 -20.472656 11.519531 -20.785156 11.96875 -21.234375 C 12.425781 -21.691406 12.910156 -22.101562 13.421875 -22.46875 C 13.929688 -22.832031 14.59375 -23.15625 15.40625 -23.4375 C 16.226562 -23.726562 17.0625 -23.875 17.90625 -23.875 C 18.78125 -23.875 19.640625 -23.75 20.484375 -23.5 C 21.328125 -23.257812 21.941406 -23.019531 22.328125 -22.78125 L 22.96875 -22.421875 L 19.625 -15.640625 C 18.625 -16.484375 17.234375 -16.90625 15.453125 -16.90625 C 14.492188 -16.90625 13.664062 -16.691406 12.96875 -16.265625 C 12.28125 -15.847656 11.789062 -15.335938 11.5 -14.734375 C 11.21875 -14.128906 11.015625 -13.613281 10.890625 -13.1875 C 10.773438 -12.769531 10.71875 -12.441406 10.71875 -12.203125 L 10.71875 0 Z M 2.71875 0 "/></g></g></g><g fill="#000000" fill-opacity="1"><g transform="translate(254.271788, 192.560099)"><g><path d="M 3.46875 -36.109375 C 4.40625 -37.046875 5.519531 -37.515625 6.8125 -37.515625 C 8.113281 -37.515625 9.234375 -37.046875 10.171875 -36.109375 C 11.109375 -35.179688 11.578125 -34.066406 11.578125 -32.765625 C 11.578125 -31.472656 11.109375 -30.359375 10.171875 -29.421875 C 9.234375 -28.492188 8.113281 -28.03125 6.8125 -28.03125 C 5.519531 -28.03125 4.40625 -28.492188 3.46875 -29.421875 C 2.539062 -30.359375 2.078125 -31.472656 2.078125 -32.765625 C 2.078125 -34.066406 2.539062 -35.179688 3.46875 -36.109375 Z M 2.71875 -23.1875 L 2.71875 0 L 10.71875 0 L 10.71875 -23.1875 Z M 2.71875 -23.1875 "/></g></g></g><g fill="#000000" fill-opacity="1"><g transform="translate(263.671781, 192.560099)"><g><path d="M 26.171875 -10.484375 L 9.359375 -10.484375 C 9.359375 -8.859375 9.882812 -7.65625 10.9375 -6.875 C 11.988281 -6.09375 13.132812 -5.703125 14.375 -5.703125 C 15.664062 -5.703125 16.6875 -5.875 17.4375 -6.21875 C 18.195312 -6.5625 19.0625 -7.242188 20.03125 -8.265625 L 25.8125 -5.375 C 23.394531 -1.34375 19.382812 0.671875 13.78125 0.671875 C 10.289062 0.671875 7.296875 -0.523438 4.796875 -2.921875 C 2.296875 -5.316406 1.046875 -8.203125 1.046875 -11.578125 C 1.046875 -14.953125 2.296875 -17.84375 4.796875 -20.25 C 7.296875 -22.664062 10.289062 -23.875 13.78125 -23.875 C 17.457031 -23.875 20.445312 -22.8125 22.75 -20.6875 C 25.0625 -18.5625 26.21875 -15.523438 26.21875 -11.578125 C 26.21875 -11.035156 26.203125 -10.671875 26.171875 -10.484375 Z M 9.578125 -14.921875 L 18.390625 -14.921875 C 18.210938 -16.117188 17.738281 -17.039062 16.96875 -17.6875 C 16.207031 -18.34375 15.222656 -18.671875 14.015625 -18.671875 C 12.691406 -18.671875 11.632812 -18.320312 10.84375 -17.625 C 10.0625 -16.9375 9.640625 -16.035156 9.578125 -14.921875 Z M 9.578125 -14.921875 "/></g></g></g><g fill="#000000" fill-opacity="1"><g transform="translate(286.676715, 192.560099)"><g><path d="M 12.796875 -23.875 C 14.117188 -23.875 15.425781 -23.722656 16.71875 -23.421875 C 18.019531 -23.117188 18.988281 -22.816406 19.625 -22.515625 L 20.5625 -22.0625 L 17.953125 -16.8125 C 16.140625 -17.78125 14.421875 -18.265625 12.796875 -18.265625 C 11.890625 -18.265625 11.25 -18.164062 10.875 -17.96875 C 10.5 -17.769531 10.3125 -17.398438 10.3125 -16.859375 C 10.3125 -16.742188 10.320312 -16.625 10.34375 -16.5 C 10.375 -16.375 10.4375 -16.257812 10.53125 -16.15625 C 10.625 -16.050781 10.707031 -15.960938 10.78125 -15.890625 C 10.851562 -15.816406 10.976562 -15.734375 11.15625 -15.640625 C 11.34375 -15.546875 11.488281 -15.476562 11.59375 -15.4375 C 11.695312 -15.394531 11.867188 -15.328125 12.109375 -15.234375 C 12.347656 -15.140625 12.53125 -15.070312 12.65625 -15.03125 C 12.78125 -14.988281 12.984375 -14.921875 13.265625 -14.828125 C 13.554688 -14.734375 13.773438 -14.671875 13.921875 -14.640625 C 14.859375 -14.367188 15.671875 -14.066406 16.359375 -13.734375 C 17.054688 -13.410156 17.785156 -12.960938 18.546875 -12.390625 C 19.316406 -11.816406 19.910156 -11.09375 20.328125 -10.21875 C 20.753906 -9.34375 20.96875 -8.347656 20.96875 -7.234375 C 20.96875 -1.960938 17.304688 0.671875 9.984375 0.671875 C 8.328125 0.671875 6.753906 0.414062 5.265625 -0.09375 C 3.773438 -0.601562 2.695312 -1.113281 2.03125 -1.625 L 1.046875 -2.4375 L 4.296875 -7.90625 C 4.535156 -7.695312 4.847656 -7.445312 5.234375 -7.15625 C 5.628906 -6.875 6.335938 -6.484375 7.359375 -5.984375 C 8.390625 -5.492188 9.28125 -5.25 10.03125 -5.25 C 11.6875 -5.25 12.515625 -5.804688 12.515625 -6.921875 C 12.515625 -7.429688 12.300781 -7.828125 11.875 -8.109375 C 11.457031 -8.398438 10.742188 -8.722656 9.734375 -9.078125 C 8.734375 -9.441406 7.945312 -9.773438 7.375 -10.078125 C 5.925781 -10.828125 4.78125 -11.675781 3.9375 -12.625 C 3.09375 -13.582031 2.671875 -14.84375 2.671875 -16.40625 C 2.671875 -18.757812 3.582031 -20.59375 5.40625 -21.90625 C 7.226562 -23.21875 9.691406 -23.875 12.796875 -23.875 Z M 12.796875 -23.875 "/></g></g></g><g fill="#000000" fill-opacity="1"><g transform="translate(304.66456, 192.560099)"><g><path d="M 7.859375 -9.671875 C 9.304688 -9.671875 10.535156 -9.164062 11.546875 -8.15625 C 12.554688 -7.144531 13.0625 -5.914062 13.0625 -4.46875 C 13.0625 -3.050781 12.554688 -1.835938 11.546875 -0.828125 C 10.535156 0.171875 9.304688 0.671875 7.859375 0.671875 C 6.441406 0.671875 5.226562 0.171875 4.21875 -0.828125 C 3.21875 -1.835938 2.71875 -3.050781 2.71875 -4.46875 C 2.71875 -5.914062 3.21875 -7.144531 4.21875 -8.15625 C 5.226562 -9.164062 6.441406 -9.671875 7.859375 -9.671875 Z M 7.859375 -9.671875 "/></g></g></g><g fill="#000000" fill-opacity="1"><g transform="translate(146.440323, 211.663654)"><g><path d="M 3.4375 -5.5 C 3.90625 -5.5 4.328125 -5.378906 4.703125 -5.140625 C 5.085938 -4.898438 5.390625 -4.566406 5.609375 -4.140625 C 5.828125 -3.710938 5.9375 -3.234375 5.9375 -2.703125 C 5.9375 -2.160156 5.828125 -1.675781 5.609375 -1.25 C 5.390625 -0.832031 5.085938 -0.503906 4.703125 -0.265625 C 4.328125 -0.0234375 3.914062 0.09375 3.46875 0.09375 C 3.101562 0.09375 2.765625 0.015625 2.453125 -0.140625 C 2.148438 -0.296875 1.90625 -0.488281 1.71875 -0.71875 L 1.71875 1.5625 C 1.71875 1.707031 1.671875 1.828125 1.578125 1.921875 C 1.484375 2.015625 1.363281 2.0625 1.21875 2.0625 C 1.082031 2.0625 0.96875 2.015625 0.875 1.921875 C 0.78125 1.828125 0.734375 1.707031 0.734375 1.5625 L 0.734375 -4.921875 C 0.734375 -5.066406 0.773438 -5.1875 0.859375 -5.28125 C 0.953125 -5.375 1.070312 -5.421875 1.21875 -5.421875 C 1.363281 -5.421875 1.484375 -5.375 1.578125 -5.28125 C 1.671875 -5.1875 1.71875 -5.066406 1.71875 -4.921875 L 1.71875 -4.625 C 1.875 -4.863281 2.109375 -5.066406 2.421875 -5.234375 C 2.742188 -5.410156 3.082031 -5.5 3.4375 -5.5 Z M 3.328125 -0.8125 C 3.648438 -0.8125 3.9375 -0.894531 4.1875 -1.0625 C 4.4375 -1.226562 4.628906 -1.453125 4.765625 -1.734375 C 4.910156 -2.023438 4.984375 -2.347656 4.984375 -2.703125 C 4.984375 -3.054688 4.910156 -3.375 4.765625 -3.65625 C 4.628906 -3.945312 4.4375 -4.175781 4.1875 -4.34375 C 3.9375 -4.507812 3.648438 -4.59375 3.328125 -4.59375 C 3.003906 -4.59375 2.710938 -4.507812 2.453125 -4.34375 C 2.203125 -4.1875 2.003906 -3.960938 1.859375 -3.671875 C 1.722656 -3.378906 1.65625 -3.054688 1.65625 -2.703125 C 1.65625 -2.347656 1.722656 -2.023438 1.859375 -1.734375 C 2.003906 -1.441406 2.203125 -1.210938 2.453125 -1.046875 C 2.710938 -0.890625 3.003906 -0.8125 3.328125 -0.8125 Z M 3.328125 -0.8125 "/></g></g></g><g fill="#000000" fill-opacity="1"><g transform="translate(159.485219, 211.663654)"><g><path d="M 5.46875 -2.90625 C 5.46875 -2.78125 5.414062 -2.675781 5.3125 -2.59375 C 5.21875 -2.507812 5.109375 -2.46875 4.984375 -2.46875 L 1.34375 -2.46875 C 1.394531 -1.96875 1.585938 -1.5625 1.921875 -1.25 C 2.253906 -0.945312 2.660156 -0.796875 3.140625 -0.796875 C 3.472656 -0.796875 3.742188 -0.84375 3.953125 -0.9375 C 4.160156 -1.039062 4.34375 -1.164062 4.5 -1.3125 C 4.601562 -1.375 4.703125 -1.40625 4.796875 -1.40625 C 4.910156 -1.40625 5.003906 -1.363281 5.078125 -1.28125 C 5.160156 -1.207031 5.203125 -1.113281 5.203125 -1 C 5.203125 -0.851562 5.132812 -0.722656 5 -0.609375 C 4.800781 -0.410156 4.535156 -0.238281 4.203125 -0.09375 C 3.878906 0.0390625 3.546875 0.109375 3.203125 0.109375 C 2.640625 0.109375 2.144531 -0.00390625 1.71875 -0.234375 C 1.300781 -0.472656 0.976562 -0.800781 0.75 -1.21875 C 0.519531 -1.644531 0.40625 -2.125 0.40625 -2.65625 C 0.40625 -3.226562 0.519531 -3.734375 0.75 -4.171875 C 0.988281 -4.609375 1.300781 -4.941406 1.6875 -5.171875 C 2.082031 -5.410156 2.503906 -5.53125 2.953125 -5.53125 C 3.390625 -5.53125 3.800781 -5.414062 4.1875 -5.1875 C 4.570312 -4.957031 4.878906 -4.644531 5.109375 -4.25 C 5.347656 -3.851562 5.46875 -3.40625 5.46875 -2.90625 Z M 2.953125 -4.625 C 2.566406 -4.625 2.234375 -4.515625 1.953125 -4.296875 C 1.671875 -4.078125 1.484375 -3.742188 1.390625 -3.296875 L 4.4375 -3.296875 L 4.4375 -3.375 C 4.40625 -3.738281 4.238281 -4.035156 3.9375 -4.265625 C 3.644531 -4.503906 3.316406 -4.625 2.953125 -4.625 Z M 2.953125 -4.625 "/></g></g></g><g fill="#000000" fill-opacity="1"><g transform="translate(172.076872, 211.663654)"><g><path d="M 3.421875 -5.53125 C 3.597656 -5.53125 3.75 -5.484375 3.875 -5.390625 C 4.007812 -5.296875 4.078125 -5.179688 4.078125 -5.046875 C 4.078125 -4.878906 4.035156 -4.75 3.953125 -4.65625 C 3.867188 -4.570312 3.765625 -4.53125 3.640625 -4.53125 C 3.578125 -4.53125 3.484375 -4.550781 3.359375 -4.59375 C 3.210938 -4.644531 3.097656 -4.671875 3.015625 -4.671875 C 2.804688 -4.671875 2.597656 -4.597656 2.390625 -4.453125 C 2.191406 -4.304688 2.03125 -4.101562 1.90625 -3.84375 C 1.78125 -3.582031 1.71875 -3.296875 1.71875 -2.984375 L 1.71875 -0.5 C 1.71875 -0.351562 1.671875 -0.234375 1.578125 -0.140625 C 1.484375 -0.046875 1.363281 0 1.21875 0 C 1.070312 0 0.953125 -0.046875 0.859375 -0.140625 C 0.773438 -0.234375 0.734375 -0.351562 0.734375 -0.5 L 0.734375 -4.90625 C 0.734375 -5.039062 0.78125 -5.15625 0.875 -5.25 C 0.96875 -5.351562 1.082031 -5.40625 1.21875 -5.40625 C 1.363281 -5.40625 1.484375 -5.351562 1.578125 -5.25 C 1.671875 -5.15625 1.71875 -5.039062 1.71875 -4.90625 L 1.71875 -4.390625 C 1.863281 -4.722656 2.085938 -4.992188 2.390625 -5.203125 C 2.691406 -5.410156 3.035156 -5.519531 3.421875 -5.53125 Z M 3.421875 -5.53125 "/></g></g></g><g fill="#000000" fill-opacity="1"><g transform="translate(183.051315, 211.663654)"><g><path d="M 3.046875 -6.75 C 2.816406 -6.75 2.644531 -6.675781 2.53125 -6.53125 C 2.425781 -6.394531 2.375 -6.226562 2.375 -6.03125 L 2.375 -5.3125 L 3.40625 -5.3125 C 3.539062 -5.3125 3.648438 -5.265625 3.734375 -5.171875 C 3.828125 -5.085938 3.875 -4.984375 3.875 -4.859375 C 3.875 -4.722656 3.828125 -4.613281 3.734375 -4.53125 C 3.648438 -4.445312 3.539062 -4.40625 3.40625 -4.40625 L 2.375 -4.40625 L 2.375 -0.5 C 2.375 -0.351562 2.328125 -0.234375 2.234375 -0.140625 C 2.148438 -0.046875 2.035156 0 1.890625 0 C 1.753906 0 1.640625 -0.046875 1.546875 -0.140625 C 1.453125 -0.234375 1.40625 -0.351562 1.40625 -0.5 L 1.40625 -4.40625 L 0.765625 -4.40625 C 0.628906 -4.40625 0.515625 -4.445312 0.421875 -4.53125 C 0.335938 -4.613281 0.296875 -4.722656 0.296875 -4.859375 C 0.296875 -4.984375 0.335938 -5.085938 0.421875 -5.171875 C 0.515625 -5.265625 0.628906 -5.3125 0.765625 -5.3125 L 1.40625 -5.3125 L 1.40625 -6.03125 C 1.40625 -6.507812 1.554688 -6.890625 1.859375 -7.171875 C 2.171875 -7.460938 2.609375 -7.609375 3.171875 -7.609375 C 3.410156 -7.609375 3.617188 -7.566406 3.796875 -7.484375 C 3.972656 -7.398438 4.0625 -7.269531 4.0625 -7.09375 C 4.0625 -6.96875 4.019531 -6.859375 3.9375 -6.765625 C 3.863281 -6.679688 3.769531 -6.640625 3.65625 -6.640625 C 3.632812 -6.640625 3.5625 -6.65625 3.4375 -6.6875 C 3.28125 -6.726562 3.148438 -6.75 3.046875 -6.75 Z M 3.046875 -6.75 "/></g></g></g><g fill="#000000" fill-opacity="1"><g transform="translate(193.788842, 211.663654)"><g><path d="M 4.75 -5.40625 C 4.894531 -5.40625 5.015625 -5.351562 5.109375 -5.25 C 5.203125 -5.15625 5.25 -5.039062 5.25 -4.90625 L 5.25 -2.171875 C 5.25 -1.453125 5.050781 -0.894531 4.65625 -0.5 C 4.257812 -0.101562 3.703125 0.09375 2.984375 0.09375 C 2.265625 0.09375 1.707031 -0.101562 1.3125 -0.5 C 0.925781 -0.894531 0.734375 -1.453125 0.734375 -2.171875 L 0.734375 -4.90625 C 0.734375 -5.039062 0.78125 -5.15625 0.875 -5.25 C 0.96875 -5.351562 1.082031 -5.40625 1.21875 -5.40625 C 1.363281 -5.40625 1.484375 -5.351562 1.578125 -5.25 C 1.671875 -5.15625 1.71875 -5.039062 1.71875 -4.90625 L 1.71875 -2.171875 C 1.71875 -1.265625 2.140625 -0.8125 2.984375 -0.8125 C 3.398438 -0.8125 3.71875 -0.925781 3.9375 -1.15625 C 4.15625 -1.382812 4.265625 -1.722656 4.265625 -2.171875 L 4.265625 -4.90625 C 4.265625 -5.039062 4.3125 -5.15625 4.40625 -5.25 C 4.5 -5.351562 4.613281 -5.40625 4.75 -5.40625 Z M 4.75 -5.40625 "/></g></g></g><g fill="#000000" fill-opacity="1"><g transform="translate(206.483503, 211.663654)"><g><path d="M 6.9375 -5.5 C 8.132812 -5.5 8.734375 -4.75 8.734375 -3.25 L 8.734375 -0.5 C 8.734375 -0.351562 8.6875 -0.234375 8.59375 -0.140625 C 8.507812 -0.046875 8.394531 0 8.25 0 C 8.101562 0 7.984375 -0.046875 7.890625 -0.140625 C 7.796875 -0.234375 7.75 -0.351562 7.75 -0.5 L 7.75 -3.234375 C 7.75 -4.140625 7.375 -4.59375 6.625 -4.59375 C 6.351562 -4.59375 6.109375 -4.53125 5.890625 -4.40625 C 5.671875 -4.289062 5.5 -4.128906 5.375 -3.921875 C 5.257812 -3.710938 5.203125 -3.484375 5.203125 -3.234375 L 5.203125 -0.5 C 5.203125 -0.351562 5.15625 -0.234375 5.0625 -0.140625 C 4.96875 -0.046875 4.851562 0 4.71875 0 C 4.570312 0 4.453125 -0.046875 4.359375 -0.140625 C 4.273438 -0.234375 4.234375 -0.351562 4.234375 -0.5 L 4.234375 -3.25 C 4.234375 -3.65625 4.144531 -3.976562 3.96875 -4.21875 C 3.800781 -4.46875 3.515625 -4.59375 3.109375 -4.59375 C 2.703125 -4.59375 2.367188 -4.460938 2.109375 -4.203125 C 1.847656 -3.941406 1.71875 -3.625 1.71875 -3.25 L 1.71875 -0.5 C 1.71875 -0.351562 1.671875 -0.234375 1.578125 -0.140625 C 1.484375 -0.046875 1.363281 0 1.21875 0 C 1.070312 0 0.953125 -0.046875 0.859375 -0.140625 C 0.773438 -0.234375 0.734375 -0.351562 0.734375 -0.5 L 0.734375 -4.90625 C 0.734375 -5.039062 0.78125 -5.15625 0.875 -5.25 C 0.96875 -5.351562 1.082031 -5.40625 1.21875 -5.40625 C 1.363281 -5.40625 1.484375 -5.351562 1.578125 -5.25 C 1.671875 -5.15625 1.71875 -5.039062 1.71875 -4.90625 L 1.71875 -4.546875 C 1.894531 -4.816406 2.128906 -5.039062 2.421875 -5.21875 C 2.722656 -5.40625 3.050781 -5.5 3.40625 -5.5 C 4.257812 -5.5 4.8125 -5.117188 5.0625 -4.359375 C 5.21875 -4.648438 5.46875 -4.910156 5.8125 -5.140625 C 6.164062 -5.378906 6.539062 -5.5 6.9375 -5.5 Z M 6.9375 -5.5 "/></g></g></g><g fill="#000000" fill-opacity="1"><g transform="translate(222.659823, 211.663654)"><g><path d="M 5.46875 -2.90625 C 5.46875 -2.78125 5.414062 -2.675781 5.3125 -2.59375 C 5.21875 -2.507812 5.109375 -2.46875 4.984375 -2.46875 L 1.34375 -2.46875 C 1.394531 -1.96875 1.585938 -1.5625 1.921875 -1.25 C 2.253906 -0.945312 2.660156 -0.796875 3.140625 -0.796875 C 3.472656 -0.796875 3.742188 -0.84375 3.953125 -0.9375 C 4.160156 -1.039062 4.34375 -1.164062 4.5 -1.3125 C 4.601562 -1.375 4.703125 -1.40625 4.796875 -1.40625 C 4.910156 -1.40625 5.003906 -1.363281 5.078125 -1.28125 C 5.160156 -1.207031 5.203125 -1.113281 5.203125 -1 C 5.203125 -0.851562 5.132812 -0.722656 5 -0.609375 C 4.800781 -0.410156 4.535156 -0.238281 4.203125 -0.09375 C 3.878906 0.0390625 3.546875 0.109375 3.203125 0.109375 C 2.640625 0.109375 2.144531 -0.00390625 1.71875 -0.234375 C 1.300781 -0.472656 0.976562 -0.800781 0.75 -1.21875 C 0.519531 -1.644531 0.40625 -2.125 0.40625 -2.65625 C 0.40625 -3.226562 0.519531 -3.734375 0.75 -4.171875 C 0.988281 -4.609375 1.300781 -4.941406 1.6875 -5.171875 C 2.082031 -5.410156 2.503906 -5.53125 2.953125 -5.53125 C 3.390625 -5.53125 3.800781 -5.414062 4.1875 -5.1875 C 4.570312 -4.957031 4.878906 -4.644531 5.109375 -4.25 C 5.347656 -3.851562 5.46875 -3.40625 5.46875 -2.90625 Z M 2.953125 -4.625 C 2.566406 -4.625 2.234375 -4.515625 1.953125 -4.296875 C 1.671875 -4.078125 1.484375 -3.742188 1.390625 -3.296875 L 4.4375 -3.296875 L 4.4375 -3.375 C 4.40625 -3.738281 4.238281 -4.035156 3.9375 -4.265625 C 3.644531 -4.503906 3.316406 -4.625 2.953125 -4.625 Z M 2.953125 -4.625 "/></g></g></g></svg>